# xmcd
#
# Track frame offsets:
#	150
#	24585
#	57534
#	84453
#	99434
#	118756
#	130623
#	154918
#	169176
#	179793
#	194871
#	214878
#	227011
#	242374
#
# Disc length: 3576
#
# Revision: 2
# Processed by: cddbd v1.5.1PL0 Copyright (c) Steve Scherf et al.
# Submitted via: audiograbber 1.83.01
# Normalized: r1:DSETVAR1
#
DISCID=c60df60e
DTITLE=Various Artist - Jazz Cafe-Espresso
DYEAR=1900
DGENRE=Jazz
TTITLE0=Dave Brubeck - Take Five
TTITLE1=Thelonious Monk - Straight, No Chaser
TTITLE2=Miles Davis - Round Midnight
TTITLE3=Sarah Vaughan - Black Coffee
TTITLE4=Thelonious Monk - Nice Work If You Can Get It
TTITLE5=Chet Baker - Little Duet For Zoo And Chet
TTITLE6=Stan Getz - Ligia
TTITLE7=Charles Paker - Parker's Mood
TTITLE8=Ella Fitzgerald - I've Got A Crush On You
TTITLE9=Miles Davis - Summertime
TTITLE10=Louis Armstrong - When The Saints Go Marching In
TTITLE11=Chet Baker - What A Difference A Day Made
TTITLE12=Billie Holiday - I'm Fool To Want You
TTITLE13=Charles Mingus - Goodbye Pork Pie Hat
EXTD=
EXTT0=
EXTT1=
EXTT2=
EXTT3=
EXTT4=
EXTT5=
EXTT6=
EXTT7=
EXTT8=
EXTT9=
EXTT10=
EXTT11=
EXTT12=
EXTT13=
PLAYORDER=
